<svg xmlns="http://www.w3.org/2000/svg" xmlns:xlink="http://www.w3.org/1999/xlink" version="1.1" x="0px" y="0px" viewBox="0 0 100 100" enable-background="new 0 0 100 100" xml:space="preserve"><g><path fill="#fff" d="M83.49,25.509c-2.512-2.507-5.533-3.762-9.068-3.762c-3.542,0-6.544,1.23-9.01,3.702c-2.471-2.471-5.474-3.702-9.01-3.702   c-3.54,0-6.583,1.255-9.134,3.762c-2.551,2.51-3.827,5.533-3.827,9.073c0,0.327,0,0.573,0,0.738   c0.247,3.375,1.325,6.911,3.229,10.617c2.149,4.274,4.3,7.607,6.454,9.993l0.372,0.245c1.657,1.562,3.475,2.348,5.464,2.348   c2.727,0,4.876-1.072,6.452-3.209c1.562,2.137,3.701,3.209,6.418,3.209c1.973,0,3.78-0.785,5.428-2.348l0.245-0.245   c0.991-0.984,3.17-4.318,6.545-9.993c1.894-3.707,2.964-7.242,3.209-10.617c0-0.165,0-0.411,0-0.738   C87.257,31.042,86.002,28.019,83.49,25.509z M55.029,30.803c-1.688,1.377-2.509,2.965-2.509,4.855v0.49   c0.126,1.346,0.606,2.922,1.42,4.547c0.371,0.742,0.07,1.646-0.673,2.019c-0.216,0.107-0.445,0.159-0.673,0.159   c-0.55,0-1.082-0.304-1.347-0.832c-0.982-1.964-1.565-3.901-1.73-5.76l-0.006-0.623c0-2.811,1.216-5.229,3.612-7.188   c0.646-0.526,1.594-0.431,2.117,0.215C55.768,29.328,55.672,30.276,55.029,30.803z"/></g><g><path fill="#fff" d="M98.126,58.791c-1.37-2.788-5.445-4.034-8.25-2.642L68.199,67.092c0.334,1.368,0.521,3.739,0.072,5.13   c-1.323,4.003-6.354,6.148-10.342,4.868l-14.657-4.754l0.692-2.55l14.65,4.756c2.935,0.932,6.103-0.687,7.084-3.626   c0.272-0.893,0.322-1.836,0.143-2.718c-0.164-0.954-0.575-1.826-1.155-2.58c-0.699-0.825-1.599-1.42-2.616-1.741L35.322,55.25   c0,0-2.208-0.683-4.378-0.834c-2.357-0.163-5.028,1.089-5.028,1.089L1.002,67.821v24.943l21.177-12.76l30.425,5.76   c2.229,0.556,4.607,0.261,6.446-0.59l36.213-18.126C99.122,65.138,99.527,61.617,98.126,58.791z"/><path fill="#fff"  d="M76.163,4.833C69.065,7.232,65.312,10.824,64.889,15.6l-4.997-4.717l-2.127,2.253l7.769,7.248   c2.41-0.413,4.429-1.187,6.052-2.329C75.479,15.2,77.004,10.794,76.163,4.833z"/></g></svg>